<svg xmlns="http://www.w3.org/2000/svg" xml:space="preserve" xmlns:xlink="http://www.w3.org/1999/xlink" style="max-width: 100%;height: auto;" width="1076.25" height="1255.625" viewBox="0 0 1076.25 1255.625">
<defs><mask id="qrmask"><g fill="#ffffff"><g>
<g transform="translate(275.625,107.625) scale(3.605)"><rect width="6" height="6"/></g>
<g transform="translate(296.625,107.625) scale(3.605)"><rect width="6" height="6"/></g>
<g transform="translate(317.625,107.625) scale(3.605)"><rect width="6" height="6"/></g>
<g transform="translate(359.625,107.625) scale(3.605)"><rect width="6" height="6"/></g>
<g transform="translate(380.625,107.625) scale(3.605)"><rect width="6" height="6"/></g>
<g transform="translate(422.625,107.625) scale(3.605)"><rect width="6" height="6"/></g>
<g transform="translate(443.625,107.625) scale(3.605)"><rect width="6" height="6"/></g>
<g transform="translate(464.625,107.625) scale(3.605)"><rect width="6" height="6"/></g>
<g transform="translate(569.625,107.625) scale(3.605)"><rect width="6" height="6"/></g>
<g transform="translate(590.625,107.625) scale(3.605)"><rect width="6" height="6"/></g>
<g transform="translate(653.625,107.625) scale(3.605)"><rect width="6" height="6"/></g>
<g transform="translate(674.625,107.625) scale(3.605)"><rect width="6" height="6"/></g>
<g transform="translate(716.625,107.625) scale(3.605)"><rect width="6" height="6"/></g>
<g transform="translate(275.625,128.625) scale(3.605)"><rect width="6" height="6"/></g>
<g transform="translate(296.625,128.625) scale(3.605)"><rect width="6" height="6"/></g>
<g transform="translate(317.625,128.625) scale(3.605)"><rect width="6" height="6"/></g>
<g transform="translate(338.625,128.625) scale(3.605)"><rect width="6" height="6"/></g>
<g transform="translate(464.625,128.625) scale(3.605)"><rect width="6" height="6"/></g>
<g transform="translate(485.625,128.625) scale(3.605)"><rect width="6" height="6"/></g>
<g transform="translate(506.625,128.625) scale(3.605)"><rect width="6" height="6"/></g>
<g transform="translate(527.625,128.625) scale(3.605)"><rect width="6" height="6"/></g>
<g transform="translate(569.625,128.625) scale(3.605)"><rect width="6" height="6"/></g>
<g transform="translate(590.625,128.625) scale(3.605)"><rect width="6" height="6"/></g>
<g transform="translate(611.625,128.625) scale(3.605)"><rect width="6" height="6"/></g>
<g transform="translate(716.625,128.625) scale(3.605)"><rect width="6" height="6"/></g>
<g transform="translate(275.625,149.625) scale(3.605)"><rect width="6" height="6"/></g>
<g transform="translate(338.625,149.625) scale(3.605)"><rect width="6" height="6"/></g>
<g transform="translate(359.625,149.625) scale(3.605)"><rect width="6" height="6"/></g>
<g transform="translate(401.625,149.625) scale(3.605)"><rect width="6" height="6"/></g>
<g transform="translate(422.625,149.625) scale(3.605)"><rect width="6" height="6"/></g>
<g transform="translate(464.625,149.625) scale(3.605)"><rect width="6" height="6"/></g>
<g transform="translate(527.625,149.625) scale(3.605)"><rect width="6" height="6"/></g>
<g transform="translate(548.625,149.625) scale(3.605)"><rect width="6" height="6"/></g>
<g transform="translate(569.625,149.625) scale(3.605)"><rect width="6" height="6"/></g>
<g transform="translate(590.625,149.625) scale(3.605)"><rect width="6" height="6"/></g>
<g transform="translate(653.625,149.625) scale(3.605)"><rect width="6" height="6"/></g>
<g transform="translate(716.625,149.625) scale(3.605)"><rect width="6" height="6"/></g>
<g transform="translate(737.625,149.625) scale(3.605)"><rect width="6" height="6"/></g>
<g transform="translate(779.625,149.625) scale(3.605)"><rect width="6" height="6"/></g>
<g transform="translate(296.625,170.625) scale(3.605)"><rect width="6" height="6"/></g>
<g transform="translate(380.625,170.625) scale(3.605)"><rect width="6" height="6"/></g>
<g transform="translate(401.625,170.625) scale(3.605)"><rect width="6" height="6"/></g>
<g transform="translate(443.625,170.625) scale(3.605)"><rect width="6" height="6"/></g>
<g transform="translate(464.625,170.625) scale(3.605)"><rect width="6" height="6"/></g>
<g transform="translate(485.625,170.625) scale(3.605)"><rect width="6" height="6"/></g>
<g transform="translate(506.625,170.625) scale(3.605)"><rect width="6" height="6"/></g>
<g transform="translate(527.625,170.625) scale(3.605)"><rect width="6" height="6"/></g>
<g transform="translate(611.625,170.625) scale(3.605)"><rect width="6" height="6"/></g>
<g transform="translate(674.625,170.625) scale(3.605)"><rect width="6" height="6"/></g>
<g transform="translate(695.625,170.625) scale(3.605)"><rect width="6" height="6"/></g>
<g transform="translate(317.625,191.625) scale(3.605)"><rect width="6" height="6"/></g>
<g transform="translate(359.625,191.625) scale(3.605)"><rect width="6" height="6"/></g>
<g transform="translate(422.625,191.625) scale(3.605)"><rect width="6" height="6"/></g>
<g transform="translate(443.625,191.625) scale(3.605)"><rect width="6" height="6"/></g>
<g transform="translate(485.625,191.625) scale(3.605)"><rect width="6" height="6"/></g>
<g transform="translate(527.625,191.625) scale(3.605)"><rect width="6" height="6"/></g>
<g transform="translate(569.625,191.625) scale(3.605)"><rect width="6" height="6"/></g>
<g transform="translate(590.625,191.625) scale(3.605)"><rect width="6" height="6"/></g>
<g transform="translate(611.625,191.625) scale(3.605)"><rect width="6" height="6"/></g>
<g transform="translate(632.625,191.625) scale(3.605)"><rect width="6" height="6"/></g>
<g transform="translate(653.625,191.625) scale(3.605)"><rect width="6" height="6"/></g>
<g transform="translate(674.625,191.625) scale(3.605)"><rect width="6" height="6"/></g>
<g transform="translate(737.625,191.625) scale(3.605)"><rect width="6" height="6"/></g>
<g transform="translate(758.625,191.625) scale(3.605)"><rect width="6" height="6"/></g>
<g transform="translate(275.625,212.625) scale(3.605)"><rect width="6" height="6"/></g>
<g transform="translate(296.625,212.625) scale(3.605)"><rect width="6" height="6"/></g>
<g transform="translate(338.625,212.625) scale(3.605)"><rect width="6" height="6"/></g>
<g transform="translate(359.625,212.625) scale(3.605)"><rect width="6" height="6"/></g>
<g transform="translate(380.625,212.625) scale(3.605)"><rect width="6" height="6"/></g>
<g transform="translate(401.625,212.625) scale(3.605)"><rect width="6" height="6"/></g>
<g transform="translate(464.625,212.625) scale(3.605)"><rect width="6" height="6"/></g>
<g transform="translate(485.625,212.625) scale(3.605)"><rect width="6" height="6"/></g>
<g transform="translate(527.625,212.625) scale(3.605)"><rect width="6" height="6"/></g>
<g transform="translate(569.625,212.625) scale(3.605)"><rect width="6" height="6"/></g>
<g transform="translate(590.625,212.625) scale(3.605)"><rect width="6" height="6"/></g>
<g transform="translate(611.625,212.625) scale(3.605)"><rect width="6" height="6"/></g>
<g transform="translate(632.625,212.625) scale(3.605)"><rect width="6" height="6"/></g>
<g transform="translate(737.625,212.625) scale(3.605)"><rect width="6" height="6"/></g>
<g transform="translate(275.625,233.625) scale(3.605)"><rect width="6" height="6"/></g>
<g transform="translate(317.625,233.625) scale(3.605)"><rect width="6" height="6"/></g>
<g transform="translate(359.625,233.625) scale(3.605)"><rect width="6" height="6"/></g>
<g transform="translate(401.625,233.625) scale(3.605)"><rect width="6" height="6"/></g>
<g transform="translate(443.625,233.625) scale(3.605)"><rect width="6" height="6"/></g>
<g transform="translate(485.625,233.625) scale(3.605)"><rect width="6" height="6"/></g>
<g transform="translate(527.625,233.625) scale(3.605)"><rect width="6" height="6"/></g>
<g transform="translate(569.625,233.625) scale(3.605)"><rect width="6" height="6"/></g>
<g transform="translate(611.625,233.625) scale(3.605)"><rect width="6" height="6"/></g>
<g transform="translate(653.625,233.625) scale(3.605)"><rect width="6" height="6"/></g>
<g transform="translate(695.625,233.625) scale(3.605)"><rect width="6" height="6"/></g>
<g transform="translate(737.625,233.625) scale(3.605)"><rect width="6" height="6"/></g>
<g transform="translate(779.625,233.625) scale(3.605)"><rect width="6" height="6"/></g>
<g transform="translate(275.625,254.625) scale(3.605)"><rect width="6" height="6"/></g>
<g transform="translate(296.625,254.625) scale(3.605)"><rect width="6" height="6"/></g>
<g transform="translate(359.625,254.625) scale(3.605)"><rect width="6" height="6"/></g>
<g transform="translate(380.625,254.625) scale(3.605)"><rect width="6" height="6"/></g>
<g transform="translate(401.625,254.625) scale(3.605)"><rect width="6" height="6"/></g>
<g transform="translate(422.625,254.625) scale(3.605)"><rect width="6" height="6"/></g>
<g transform="translate(485.625,254.625) scale(3.605)"><rect width="6" height="6"/></g>
<g transform="translate(590.625,254.625) scale(3.605)"><rect width="6" height="6"/></g>
<g transform="translate(632.625,254.625) scale(3.605)"><rect width="6" height="6"/></g>
<g transform="translate(674.625,254.625) scale(3.605)"><rect width="6" height="6"/></g>
<g transform="translate(716.625,254.625) scale(3.605)"><rect width="6" height="6"/></g>
<g transform="translate(149.625,275.625) scale(3.605)"><rect width="6" height="6"/></g>
<g transform="translate(170.625,275.625) scale(3.605)"><rect width="6" height="6"/></g>
<g transform="translate(191.625,275.625) scale(3.605)"><rect width="6" height="6"/></g>
<g transform="translate(233.625,275.625) scale(3.605)"><rect width="6" height="6"/></g>
<g transform="translate(275.625,275.625) scale(3.605)"><rect width="6" height="6"/></g>
<g transform="translate(317.625,275.625) scale(3.605)"><rect width="6" height="6"/></g>
<g transform="translate(338.625,275.625) scale(3.605)"><rect width="6" height="6"/></g>
<g transform="translate(359.625,275.625) scale(3.605)"><rect width="6" height="6"/></g>
<g transform="translate(380.625,275.625) scale(3.605)"><rect width="6" height="6"/></g>
<g transform="translate(422.625,275.625) scale(3.605)"><rect width="6" height="6"/></g>
<g transform="translate(443.625,275.625) scale(3.605)"><rect width="6" height="6"/></g>
<g transform="translate(464.625,275.625) scale(3.605)"><rect width="6" height="6"/></g>
<g transform="translate(506.625,275.625) scale(3.605)"><rect width="6" height="6"/></g>
<g transform="translate(527.625,275.625) scale(3.605)"><rect width="6" height="6"/></g>
<g transform="translate(548.625,275.625) scale(3.605)"><rect width="6" height="6"/></g>
<g transform="translate(611.625,275.625) scale(3.605)"><rect width="6" height="6"/></g>
<g transform="translate(653.625,275.625) scale(3.605)"><rect width="6" height="6"/></g>
<g transform="translate(695.625,275.625) scale(3.605)"><rect width="6" height="6"/></g>
<g transform="translate(716.625,275.625) scale(3.605)"><rect width="6" height="6"/></g>
<g transform="translate(737.625,275.625) scale(3.605)"><rect width="6" height="6"/></g>
<g transform="translate(758.625,275.625) scale(3.605)"><rect width="6" height="6"/></g>
<g transform="translate(779.625,275.625) scale(3.605)"><rect width="6" height="6"/></g>
<g transform="translate(800.625,275.625) scale(3.605)"><rect width="6" height="6"/></g>
<g transform="translate(821.625,275.625) scale(3.605)"><rect width="6" height="6"/></g>
<g transform="translate(842.625,275.625) scale(3.605)"><rect width="6" height="6"/></g>
<g transform="translate(905.625,275.625) scale(3.605)"><rect width="6" height="6"/></g>
<g transform="translate(926.625,275.625) scale(3.605)"><rect width="6" height="6"/></g>
<g transform="translate(947.625,275.625) scale(3.605)"><rect width="6" height="6"/></g>
<g transform="translate(149.625,296.625) scale(3.605)"><rect width="6" height="6"/></g>
<g transform="translate(170.625,296.625) scale(3.605)"><rect width="6" height="6"/></g>
<g transform="translate(191.625,296.625) scale(3.605)"><rect width="6" height="6"/></g>
<g transform="translate(212.625,296.625) scale(3.605)"><rect width="6" height="6"/></g>
<g transform="translate(317.625,296.625) scale(3.605)"><rect width="6" height="6"/></g>
<g transform="translate(338.625,296.625) scale(3.605)"><rect width="6" height="6"/></g>
<g transform="translate(359.625,296.625) scale(3.605)"><rect width="6" height="6"/></g>
<g transform="translate(401.625,296.625) scale(3.605)"><rect width="6" height="6"/></g>
<g transform="translate(422.625,296.625) scale(3.605)"><rect width="6" height="6"/></g>
<g transform="translate(506.625,296.625) scale(3.605)"><rect width="6" height="6"/></g>
<g transform="translate(590.625,296.625) scale(3.605)"><rect width="6" height="6"/></g>
<g transform="translate(611.625,296.625) scale(3.605)"><rect width="6" height="6"/></g>
<g transform="translate(632.625,296.625) scale(3.605)"><rect width="6" height="6"/></g>
<g transform="translate(758.625,296.625) scale(3.605)"><rect width="6" height="6"/></g>
<g transform="translate(800.625,296.625) scale(3.605)"><rect width="6" height="6"/></g>
<g transform="translate(821.625,296.625) scale(3.605)"><rect width="6" height="6"/></g>
<g transform="translate(863.625,296.625) scale(3.605)"><rect width="6" height="6"/></g>
<g transform="translate(905.625,296.625) scale(3.605)"><rect width="6" height="6"/></g>
<g transform="translate(926.625,296.625) scale(3.605)"><rect width="6" height="6"/></g>
<g transform="translate(107.625,317.625) scale(3.605)"><rect width="6" height="6"/></g>
<g transform="translate(149.625,317.625) scale(3.605)"><rect width="6" height="6"/></g>
<g transform="translate(170.625,317.625) scale(3.605)"><rect width="6" height="6"/></g>
<g transform="translate(233.625,317.625) scale(3.605)"><rect width="6" height="6"/></g>
<g transform="translate(254.625,317.625) scale(3.605)"><rect width="6" height="6"/></g>
<g transform="translate(275.625,317.625) scale(3.605)"><rect width="6" height="6"/></g>
<g transform="translate(338.625,317.625) scale(3.605)"><rect width="6" height="6"/></g>
<g transform="translate(359.625,317.625) scale(3.605)"><rect width="6" height="6"/></g>
<g transform="translate(422.625,317.625) scale(3.605)"><rect width="6" height="6"/></g>
<g transform="translate(443.625,317.625) scale(3.605)"><rect width="6" height="6"/></g>
<g transform="translate(485.625,317.625) scale(3.605)"><rect width="6" height="6"/></g>
<g transform="translate(527.625,317.625) scale(3.605)"><rect width="6" height="6"/></g>
<g transform="translate(590.625,317.625) scale(3.605)"><rect width="6" height="6"/></g>
<g transform="translate(611.625,317.625) scale(3.605)"><rect width="6" height="6"/></g>
<g transform="translate(737.625,317.625) scale(3.605)"><rect width="6" height="6"/></g>
<g transform="translate(758.625,317.625) scale(3.605)"><rect width="6" height="6"/></g>
<g transform="translate(821.625,317.625) scale(3.605)"><rect width="6" height="6"/></g>
<g transform="translate(842.625,317.625) scale(3.605)"><rect width="6" height="6"/></g>
<g transform="translate(884.625,317.625) scale(3.605)"><rect width="6" height="6"/></g>
<g transform="translate(905.625,317.625) scale(3.605)"><rect width="6" height="6"/></g>
<g transform="translate(926.625,317.625) scale(3.605)"><rect width="6" height="6"/></g>
<g transform="translate(947.625,317.625) scale(3.605)"><rect width="6" height="6"/></g>
<g transform="translate(149.625,338.625) scale(3.605)"><rect width="6" height="6"/></g>
<g transform="translate(170.625,338.625) scale(3.605)"><rect width="6" height="6"/></g>
<g transform="translate(191.625,338.625) scale(3.605)"><rect width="6" height="6"/></g>
<g transform="translate(212.625,338.625) scale(3.605)"><rect width="6" height="6"/></g>
<g transform="translate(275.625,338.625) scale(3.605)"><rect width="6" height="6"/></g>
<g transform="translate(317.625,338.625) scale(3.605)"><rect width="6" height="6"/></g>
<g transform="translate(338.625,338.625) scale(3.605)"><rect width="6" height="6"/></g>
<g transform="translate(359.625,338.625) scale(3.605)"><rect width="6" height="6"/></g>
<g transform="translate(380.625,338.625) scale(3.605)"><rect width="6" height="6"/></g>
<g transform="translate(422.625,338.625) scale(3.605)"><rect width="6" height="6"/></g>
<g transform="translate(485.625,338.625) scale(3.605)"><rect width="6" height="6"/></g>
<g transform="translate(527.625,338.625) scale(3.605)"><rect width="6" height="6"/></g>
<g transform="translate(548.625,338.625) scale(3.605)"><rect width="6" height="6"/></g>
<g transform="translate(590.625,338.625) scale(3.605)"><rect width="6" height="6"/></g>
<g transform="translate(611.625,338.625) scale(3.605)"><rect width="6" height="6"/></g>
<g transform="translate(674.625,338.625) scale(3.605)"><rect width="6" height="6"/></g>
<g transform="translate(716.625,338.625) scale(3.605)"><rect width="6" height="6"/></g>
<g transform="translate(737.625,338.625) scale(3.605)"><rect width="6" height="6"/></g>
<g transform="translate(779.625,338.625) scale(3.605)"><rect width="6" height="6"/></g>
<g transform="translate(800.625,338.625) scale(3.605)"><rect width="6" height="6"/></g>
<g transform="translate(821.625,338.625) scale(3.605)"><rect width="6" height="6"/></g>
<g transform="translate(107.625,359.625) scale(3.605)"><rect width="6" height="6"/></g>
<g transform="translate(170.625,359.625) scale(3.605)"><rect width="6" height="6"/></g>
<g transform="translate(191.625,359.625) scale(3.605)"><rect width="6" height="6"/></g>
<g transform="translate(212.625,359.625) scale(3.605)"><rect width="6" height="6"/></g>
<g transform="translate(233.625,359.625) scale(3.605)"><rect width="6" height="6"/></g>
<g transform="translate(254.625,359.625) scale(3.605)"><rect width="6" height="6"/></g>
<g transform="translate(275.625,359.625) scale(3.605)"><rect width="6" height="6"/></g>
<g transform="translate(296.625,359.625) scale(3.605)"><rect width="6" height="6"/></g>
<g transform="translate(338.625,359.625) scale(3.605)"><rect width="6" height="6"/></g>
<g transform="translate(359.625,359.625) scale(3.605)"><rect width="6" height="6"/></g>
<g transform="translate(401.625,359.625) scale(3.605)"><rect width="6" height="6"/></g>
<g transform="translate(443.625,359.625) scale(3.605)"><rect width="6" height="6"/></g>
<g transform="translate(464.625,359.625) scale(3.605)"><rect width="6" height="6"/></g>
<g transform="translate(506.625,359.625) scale(3.605)"><rect width="6" height="6"/></g>
<g transform="translate(527.625,359.625) scale(3.605)"><rect width="6" height="6"/></g>
<g transform="translate(569.625,359.625) scale(3.605)"><rect width="6" height="6"/></g>
<g transform="translate(590.625,359.625) scale(3.605)"><rect width="6" height="6"/></g>
<g transform="translate(611.625,359.625) scale(3.605)"><rect width="6" height="6"/></g>
<g transform="translate(674.625,359.625) scale(3.605)"><rect width="6" height="6"/></g>
<g transform="translate(737.625,359.625) scale(3.605)"><rect width="6" height="6"/></g>
<g transform="translate(779.625,359.625) scale(3.605)"><rect width="6" height="6"/></g>
<g transform="translate(821.625,359.625) scale(3.605)"><rect width="6" height="6"/></g>
<g transform="translate(905.625,359.625) scale(3.605)"><rect width="6" height="6"/></g>
<g transform="translate(947.625,359.625) scale(3.605)"><rect width="6" height="6"/></g>
<g transform="translate(107.625,380.625) scale(3.605)"><rect width="6" height="6"/></g>
<g transform="translate(128.625,380.625) scale(3.605)"><rect width="6" height="6"/></g>
<g transform="translate(149.625,380.625) scale(3.605)"><rect width="6" height="6"/></g>
<g transform="translate(191.625,380.625) scale(3.605)"><rect width="6" height="6"/></g>
<g transform="translate(254.625,380.625) scale(3.605)"><rect width="6" height="6"/></g>
<g transform="translate(317.625,380.625) scale(3.605)"><rect width="6" height="6"/></g>
<g transform="translate(338.625,380.625) scale(3.605)"><rect width="6" height="6"/></g>
<g transform="translate(359.625,380.625) scale(3.605)"><rect width="6" height="6"/></g>
<g transform="translate(380.625,380.625) scale(3.605)"><rect width="6" height="6"/></g>
<g transform="translate(506.625,380.625) scale(3.605)"><rect width="6" height="6"/></g>
<g transform="translate(548.625,380.625) scale(3.605)"><rect width="6" height="6"/></g>
<g transform="translate(590.625,380.625) scale(3.605)"><rect width="6" height="6"/></g>
<g transform="translate(611.625,380.625) scale(3.605)"><rect width="6" height="6"/></g>
<g transform="translate(632.625,380.625) scale(3.605)"><rect width="6" height="6"/></g>
<g transform="translate(674.625,380.625) scale(3.605)"><rect width="6" height="6"/></g>
<g transform="translate(695.625,380.625) scale(3.605)"><rect width="6" height="6"/></g>
<g transform="translate(716.625,380.625) scale(3.605)"><rect width="6" height="6"/></g>
<g transform="translate(800.625,380.625) scale(3.605)"><rect width="6" height="6"/></g>
<g transform="translate(905.625,380.625) scale(3.605)"><rect width="6" height="6"/></g>
<g transform="translate(926.625,380.625) scale(3.605)"><rect width="6" height="6"/></g>
<g transform="translate(947.625,380.625) scale(3.605)"><rect width="6" height="6"/></g>
<g transform="translate(128.625,401.625) scale(3.605)"><rect width="6" height="6"/></g>
<g transform="translate(170.625,401.625) scale(3.605)"><rect width="6" height="6"/></g>
<g transform="translate(191.625,401.625) scale(3.605)"><rect width="6" height="6"/></g>
<g transform="translate(212.625,401.625) scale(3.605)"><rect width="6" height="6"/></g>
<g transform="translate(233.625,401.625) scale(3.605)"><rect width="6" height="6"/></g>
<g transform="translate(254.625,401.625) scale(3.605)"><rect width="6" height="6"/></g>
<g transform="translate(317.625,401.625) scale(3.605)"><rect width="6" height="6"/></g>
<g transform="translate(359.625,401.625) scale(3.605)"><rect width="6" height="6"/></g>
<g transform="translate(380.625,401.625) scale(3.605)"><rect width="6" height="6"/></g>
<g transform="translate(422.625,401.625) scale(3.605)"><rect width="6" height="6"/></g>
<g transform="translate(464.625,401.625) scale(3.605)"><rect width="6" height="6"/></g>
<g transform="translate(548.625,401.625) scale(3.605)"><rect width="6" height="6"/></g>
<g transform="translate(632.625,401.625) scale(3.605)"><rect width="6" height="6"/></g>
<g transform="translate(653.625,401.625) scale(3.605)"><rect width="6" height="6"/></g>
<g transform="translate(779.625,401.625) scale(3.605)"><rect width="6" height="6"/></g>
<g transform="translate(821.625,401.625) scale(3.605)"><rect width="6" height="6"/></g>
<g transform="translate(842.625,401.625) scale(3.605)"><rect width="6" height="6"/></g>
<g transform="translate(863.625,401.625) scale(3.605)"><rect width="6" height="6"/></g>
<g transform="translate(947.625,401.625) scale(3.605)"><rect width="6" height="6"/></g>
<g transform="translate(107.625,422.625) scale(3.605)"><rect width="6" height="6"/></g>
<g transform="translate(170.625,422.625) scale(3.605)"><rect width="6" height="6"/></g>
<g transform="translate(191.625,422.625) scale(3.605)"><rect width="6" height="6"/></g>
<g transform="translate(275.625,422.625) scale(3.605)"><rect width="6" height="6"/></g>
<g transform="translate(296.625,422.625) scale(3.605)"><rect width="6" height="6"/></g>
<g transform="translate(359.625,422.625) scale(3.605)"><rect width="6" height="6"/></g>
<g transform="translate(380.625,422.625) scale(3.605)"><rect width="6" height="6"/></g>
<g transform="translate(401.625,422.625) scale(3.605)"><rect width="6" height="6"/></g>
<g transform="translate(422.625,422.625) scale(3.605)"><rect width="6" height="6"/></g>
<g transform="translate(443.625,422.625) scale(3.605)"><rect width="6" height="6"/></g>
<g transform="translate(485.625,422.625) scale(3.605)"><rect width="6" height="6"/></g>
<g transform="translate(506.625,422.625) scale(3.605)"><rect width="6" height="6"/></g>
<g transform="translate(527.625,422.625) scale(3.605)"><rect width="6" height="6"/></g>
<g transform="translate(548.625,422.625) scale(3.605)"><rect width="6" height="6"/></g>
<g transform="translate(569.625,422.625) scale(3.605)"><rect width="6" height="6"/></g>
<g transform="translate(695.625,422.625) scale(3.605)"><rect width="6" height="6"/></g>
<g transform="translate(800.625,422.625) scale(3.605)"><rect width="6" height="6"/></g>
<g transform="translate(821.625,422.625) scale(3.605)"><rect width="6" height="6"/></g>
<g transform="translate(842.625,422.625) scale(3.605)"><rect width="6" height="6"/></g>
<g transform="translate(128.625,443.625) scale(3.605)"><rect width="6" height="6"/></g>
<g transform="translate(149.625,443.625) scale(3.605)"><rect width="6" height="6"/></g>
<g transform="translate(191.625,443.625) scale(3.605)"><rect width="6" height="6"/></g>
<g transform="translate(233.625,443.625) scale(3.605)"><rect width="6" height="6"/></g>
<g transform="translate(317.625,443.625) scale(3.605)"><rect width="6" height="6"/></g>
<g transform="translate(380.625,443.625) scale(3.605)"><rect width="6" height="6"/></g>
<g transform="translate(464.625,443.625) scale(3.605)"><rect width="6" height="6"/></g>
<g transform="translate(485.625,443.625) scale(3.605)"><rect width="6" height="6"/></g>
<g transform="translate(506.625,443.625) scale(3.605)"><rect width="6" height="6"/></g>
<g transform="translate(527.625,443.625) scale(3.605)"><rect width="6" height="6"/></g>
<g transform="translate(548.625,443.625) scale(3.605)"><rect width="6" height="6"/></g>
<g transform="translate(590.625,443.625) scale(3.605)"><rect width="6" height="6"/></g>
<g transform="translate(611.625,443.625) scale(3.605)"><rect width="6" height="6"/></g>
<g transform="translate(632.625,443.625) scale(3.605)"><rect width="6" height="6"/></g>
<g transform="translate(653.625,443.625) scale(3.605)"><rect width="6" height="6"/></g>
<g transform="translate(695.625,443.625) scale(3.605)"><rect width="6" height="6"/></g>
<g transform="translate(716.625,443.625) scale(3.605)"><rect width="6" height="6"/></g>
<g transform="translate(737.625,443.625) scale(3.605)"><rect width="6" height="6"/></g>
<g transform="translate(800.625,443.625) scale(3.605)"><rect width="6" height="6"/></g>
<g transform="translate(821.625,443.625) scale(3.605)"><rect width="6" height="6"/></g>
<g transform="translate(842.625,443.625) scale(3.605)"><rect width="6" height="6"/></g>
<g transform="translate(884.625,443.625) scale(3.605)"><rect width="6" height="6"/></g>
<g transform="translate(107.625,464.625) scale(3.605)"><rect width="6" height="6"/></g>
<g transform="translate(296.625,464.625) scale(3.605)"><rect width="6" height="6"/></g>
<g transform="translate(338.625,464.625) scale(3.605)"><rect width="6" height="6"/></g>
<g transform="translate(380.625,464.625) scale(3.605)"><rect width="6" height="6"/></g>
<g transform="translate(401.625,464.625) scale(3.605)"><rect width="6" height="6"/></g>
<g transform="translate(422.625,464.625) scale(3.605)"><rect width="6" height="6"/></g>
<g transform="translate(443.625,464.625) scale(3.605)"><rect width="6" height="6"/></g>
<g transform="translate(464.625,464.625) scale(3.605)"><rect width="6" height="6"/></g>
<g transform="translate(569.625,464.625) scale(3.605)"><rect width="6" height="6"/></g>
<g transform="translate(590.625,464.625) scale(3.605)"><rect width="6" height="6"/></g>
<g transform="translate(611.625,464.625) scale(3.605)"><rect width="6" height="6"/></g>
<g transform="translate(653.625,464.625) scale(3.605)"><rect width="6" height="6"/></g>
<g transform="translate(758.625,464.625) scale(3.605)"><rect width="6" height="6"/></g>
<g transform="translate(863.625,464.625) scale(3.605)"><rect width="6" height="6"/></g>
<g transform="translate(128.625,485.625) scale(3.605)"><rect width="6" height="6"/></g>
<g transform="translate(149.625,485.625) scale(3.605)"><rect width="6" height="6"/></g>
<g transform="translate(191.625,485.625) scale(3.605)"><rect width="6" height="6"/></g>
<g transform="translate(212.625,485.625) scale(3.605)"><rect width="6" height="6"/></g>
<g transform="translate(233.625,485.625) scale(3.605)"><rect width="6" height="6"/></g>
<g transform="translate(254.625,485.625) scale(3.605)"><rect width="6" height="6"/></g>
<g transform="translate(296.625,485.625) scale(3.605)"><rect width="6" height="6"/></g>
<g transform="translate(401.625,485.625) scale(3.605)"><rect width="6" height="6"/></g>
<g transform="translate(443.625,485.625) scale(3.605)"><rect width="6" height="6"/></g>
<g transform="translate(464.625,485.625) scale(3.605)"><rect width="6" height="6"/></g>
<g transform="translate(569.625,485.625) scale(3.605)"><rect width="6" height="6"/></g>
<g transform="translate(611.625,485.625) scale(3.605)"><rect width="6" height="6"/></g>
<g transform="translate(737.625,485.625) scale(3.605)"><rect width="6" height="6"/></g>
<g transform="translate(758.625,485.625) scale(3.605)"><rect width="6" height="6"/></g>
<g transform="translate(779.625,485.625) scale(3.605)"><rect width="6" height="6"/></g>
<g transform="translate(800.625,485.625) scale(3.605)"><rect width="6" height="6"/></g>
<g transform="translate(821.625,485.625) scale(3.605)"><rect width="6" height="6"/></g>
<g transform="translate(905.625,485.625) scale(3.605)"><rect width="6" height="6"/></g>
<g transform="translate(926.625,485.625) scale(3.605)"><rect width="6" height="6"/></g>
<g transform="translate(947.625,485.625) scale(3.605)"><rect width="6" height="6"/></g>
<g transform="translate(107.625,506.625) scale(3.605)"><rect width="6" height="6"/></g>
<g transform="translate(128.625,506.625) scale(3.605)"><rect width="6" height="6"/></g>
<g transform="translate(317.625,506.625) scale(3.605)"><rect width="6" height="6"/></g>
<g transform="translate(338.625,506.625) scale(3.605)"><rect width="6" height="6"/></g>
<g transform="translate(380.625,506.625) scale(3.605)"><rect width="6" height="6"/></g>
<g transform="translate(485.625,506.625) scale(3.605)"><rect width="6" height="6"/></g>
<g transform="translate(527.625,506.625) scale(3.605)"><rect width="6" height="6"/></g>
<g transform="translate(569.625,506.625) scale(3.605)"><rect width="6" height="6"/></g>
<g transform="translate(632.625,506.625) scale(3.605)"><rect width="6" height="6"/></g>
<g transform="translate(653.625,506.625) scale(3.605)"><rect width="6" height="6"/></g>
<g transform="translate(779.625,506.625) scale(3.605)"><rect width="6" height="6"/></g>
<g transform="translate(800.625,506.625) scale(3.605)"><rect width="6" height="6"/></g>
<g transform="translate(821.625,506.625) scale(3.605)"><rect width="6" height="6"/></g>
<g transform="translate(842.625,506.625) scale(3.605)"><rect width="6" height="6"/></g>
<g transform="translate(863.625,506.625) scale(3.605)"><rect width="6" height="6"/></g>
<g transform="translate(947.625,506.625) scale(3.605)"><rect width="6" height="6"/></g>
<g transform="translate(149.625,527.625) scale(3.605)"><rect width="6" height="6"/></g>
<g transform="translate(170.625,527.625) scale(3.605)"><rect width="6" height="6"/></g>
<g transform="translate(233.625,527.625) scale(3.605)"><rect width="6" height="6"/></g>
<g transform="translate(254.625,527.625) scale(3.605)"><rect width="6" height="6"/></g>
<g transform="translate(296.625,527.625) scale(3.605)"><rect width="6" height="6"/></g>
<g transform="translate(359.625,527.625) scale(3.605)"><rect width="6" height="6"/></g>
<g transform="translate(380.625,527.625) scale(3.605)"><rect width="6" height="6"/></g>
<g transform="translate(401.625,527.625) scale(3.605)"><rect width="6" height="6"/></g>
<g transform="translate(422.625,527.625) scale(3.605)"><rect width="6" height="6"/></g>
<g transform="translate(506.625,527.625) scale(3.605)"><rect width="6" height="6"/></g>
<g transform="translate(569.625,527.625) scale(3.605)"><rect width="6" height="6"/></g>
<g transform="translate(590.625,527.625) scale(3.605)"><rect width="6" height="6"/></g>
<g transform="translate(632.625,527.625) scale(3.605)"><rect width="6" height="6"/></g>
<g transform="translate(737.625,527.625) scale(3.605)"><rect width="6" height="6"/></g>
<g transform="translate(758.625,527.625) scale(3.605)"><rect width="6" height="6"/></g>
<g transform="translate(800.625,527.625) scale(3.605)"><rect width="6" height="6"/></g>
<g transform="translate(842.625,527.625) scale(3.605)"><rect width="6" height="6"/></g>
<g transform="translate(863.625,527.625) scale(3.605)"><rect width="6" height="6"/></g>
<g transform="translate(884.625,527.625) scale(3.605)"><rect width="6" height="6"/></g>
<g transform="translate(947.625,527.625) scale(3.605)"><rect width="6" height="6"/></g>
<g transform="translate(107.625,548.625) scale(3.605)"><rect width="6" height="6"/></g>
<g transform="translate(128.625,548.625) scale(3.605)"><rect width="6" height="6"/></g>
<g transform="translate(191.625,548.625) scale(3.605)"><rect width="6" height="6"/></g>
<g transform="translate(212.625,548.625) scale(3.605)"><rect width="6" height="6"/></g>
<g transform="translate(254.625,548.625) scale(3.605)"><rect width="6" height="6"/></g>
<g transform="translate(317.625,548.625) scale(3.605)"><rect width="6" height="6"/></g>
<g transform="translate(338.625,548.625) scale(3.605)"><rect width="6" height="6"/></g>
<g transform="translate(443.625,548.625) scale(3.605)"><rect width="6" height="6"/></g>
<g transform="translate(485.625,548.625) scale(3.605)"><rect width="6" height="6"/></g>
<g transform="translate(548.625,548.625) scale(3.605)"><rect width="6" height="6"/></g>
<g transform="translate(569.625,548.625) scale(3.605)"><rect width="6" height="6"/></g>
<g transform="translate(590.625,548.625) scale(3.605)"><rect width="6" height="6"/></g>
<g transform="translate(611.625,548.625) scale(3.605)"><rect width="6" height="6"/></g>
<g transform="translate(653.625,548.625) scale(3.605)"><rect width="6" height="6"/></g>
<g transform="translate(674.625,548.625) scale(3.605)"><rect width="6" height="6"/></g>
<g transform="translate(695.625,548.625) scale(3.605)"><rect width="6" height="6"/></g>
<g transform="translate(716.625,548.625) scale(3.605)"><rect width="6" height="6"/></g>
<g transform="translate(758.625,548.625) scale(3.605)"><rect width="6" height="6"/></g>
<g transform="translate(863.625,548.625) scale(3.605)"><rect width="6" height="6"/></g>
<g transform="translate(107.625,569.625) scale(3.605)"><rect width="6" height="6"/></g>
<g transform="translate(128.625,569.625) scale(3.605)"><rect width="6" height="6"/></g>
<g transform="translate(149.625,569.625) scale(3.605)"><rect width="6" height="6"/></g>
<g transform="translate(170.625,569.625) scale(3.605)"><rect width="6" height="6"/></g>
<g transform="translate(212.625,569.625) scale(3.605)"><rect width="6" height="6"/></g>
<g transform="translate(233.625,569.625) scale(3.605)"><rect width="6" height="6"/></g>
<g transform="translate(317.625,569.625) scale(3.605)"><rect width="6" height="6"/></g>
<g transform="translate(338.625,569.625) scale(3.605)"><rect width="6" height="6"/></g>
<g transform="translate(380.625,569.625) scale(3.605)"><rect width="6" height="6"/></g>
<g transform="translate(401.625,569.625) scale(3.605)"><rect width="6" height="6"/></g>
<g transform="translate(443.625,569.625) scale(3.605)"><rect width="6" height="6"/></g>
<g transform="translate(464.625,569.625) scale(3.605)"><rect width="6" height="6"/></g>
<g transform="translate(569.625,569.625) scale(3.605)"><rect width="6" height="6"/></g>
<g transform="translate(674.625,569.625) scale(3.605)"><rect width="6" height="6"/></g>
<g transform="translate(737.625,569.625) scale(3.605)"><rect width="6" height="6"/></g>
<g transform="translate(758.625,569.625) scale(3.605)"><rect width="6" height="6"/></g>
<g transform="translate(779.625,569.625) scale(3.605)"><rect width="6" height="6"/></g>
<g transform="translate(800.625,569.625) scale(3.605)"><rect width="6" height="6"/></g>
<g transform="translate(842.625,569.625) scale(3.605)"><rect width="6" height="6"/></g>
<g transform="translate(863.625,569.625) scale(3.605)"><rect width="6" height="6"/></g>
<g transform="translate(128.625,590.625) scale(3.605)"><rect width="6" height="6"/></g>
<g transform="translate(170.625,590.625) scale(3.605)"><rect width="6" height="6"/></g>
<g transform="translate(191.625,590.625) scale(3.605)"><rect width="6" height="6"/></g>
<g transform="translate(212.625,590.625) scale(3.605)"><rect width="6" height="6"/></g>
<g transform="translate(254.625,590.625) scale(3.605)"><rect width="6" height="6"/></g>
<g transform="translate(359.625,590.625) scale(3.605)"><rect width="6" height="6"/></g>
<g transform="translate(569.625,590.625) scale(3.605)"><rect width="6" height="6"/></g>
<g transform="translate(590.625,590.625) scale(3.605)"><rect width="6" height="6"/></g>
<g transform="translate(632.625,590.625) scale(3.605)"><rect width="6" height="6"/></g>
<g transform="translate(695.625,590.625) scale(3.605)"><rect width="6" height="6"/></g>
<g transform="translate(758.625,590.625) scale(3.605)"><rect width="6" height="6"/></g>
<g transform="translate(863.625,590.625) scale(3.605)"><rect width="6" height="6"/></g>
<g transform="translate(926.625,590.625) scale(3.605)"><rect width="6" height="6"/></g>
<g transform="translate(149.625,611.625) scale(3.605)"><rect width="6" height="6"/></g>
<g transform="translate(233.625,611.625) scale(3.605)"><rect width="6" height="6"/></g>
<g transform="translate(317.625,611.625) scale(3.605)"><rect width="6" height="6"/></g>
<g transform="translate(338.625,611.625) scale(3.605)"><rect width="6" height="6"/></g>
<g transform="translate(422.625,611.625) scale(3.605)"><rect width="6" height="6"/></g>
<g transform="translate(485.625,611.625) scale(3.605)"><rect width="6" height="6"/></g>
<g transform="translate(506.625,611.625) scale(3.605)"><rect width="6" height="6"/></g>
<g transform="translate(548.625,611.625) scale(3.605)"><rect width="6" height="6"/></g>
<g transform="translate(590.625,611.625) scale(3.605)"><rect width="6" height="6"/></g>
<g transform="translate(695.625,611.625) scale(3.605)"><rect width="6" height="6"/></g>
<g transform="translate(716.625,611.625) scale(3.605)"><rect width="6" height="6"/></g>
<g transform="translate(737.625,611.625) scale(3.605)"><rect width="6" height="6"/></g>
<g transform="translate(758.625,611.625) scale(3.605)"><rect width="6" height="6"/></g>
<g transform="translate(779.625,611.625) scale(3.605)"><rect width="6" height="6"/></g>
<g transform="translate(800.625,611.625) scale(3.605)"><rect width="6" height="6"/></g>
<g transform="translate(842.625,611.625) scale(3.605)"><rect width="6" height="6"/></g>
<g transform="translate(107.625,632.625) scale(3.605)"><rect width="6" height="6"/></g>
<g transform="translate(149.625,632.625) scale(3.605)"><rect width="6" height="6"/></g>
<g transform="translate(212.625,632.625) scale(3.605)"><rect width="6" height="6"/></g>
<g transform="translate(254.625,632.625) scale(3.605)"><rect width="6" height="6"/></g>
<g transform="translate(275.625,632.625) scale(3.605)"><rect width="6" height="6"/></g>
<g transform="translate(317.625,632.625) scale(3.605)"><rect width="6" height="6"/></g>
<g transform="translate(338.625,632.625) scale(3.605)"><rect width="6" height="6"/></g>
<g transform="translate(359.625,632.625) scale(3.605)"><rect width="6" height="6"/></g>
<g transform="translate(443.625,632.625) scale(3.605)"><rect width="6" height="6"/></g>
<g transform="translate(464.625,632.625) scale(3.605)"><rect width="6" height="6"/></g>
<g transform="translate(485.625,632.625) scale(3.605)"><rect width="6" height="6"/></g>
<g transform="translate(611.625,632.625) scale(3.605)"><rect width="6" height="6"/></g>
<g transform="translate(632.625,632.625) scale(3.605)"><rect width="6" height="6"/></g>
<g transform="translate(716.625,632.625) scale(3.605)"><rect width="6" height="6"/></g>
<g transform="translate(758.625,632.625) scale(3.605)"><rect width="6" height="6"/></g>
<g transform="translate(800.625,632.625) scale(3.605)"><rect width="6" height="6"/></g>
<g transform="translate(821.625,632.625) scale(3.605)"><rect width="6" height="6"/></g>
<g transform="translate(863.625,632.625) scale(3.605)"><rect width="6" height="6"/></g>
<g transform="translate(884.625,632.625) scale(3.605)"><rect width="6" height="6"/></g>
<g transform="translate(107.625,653.625) scale(3.605)"><rect width="6" height="6"/></g>
<g transform="translate(191.625,653.625) scale(3.605)"><rect width="6" height="6"/></g>
<g transform="translate(212.625,653.625) scale(3.605)"><rect width="6" height="6"/></g>
<g transform="translate(233.625,653.625) scale(3.605)"><rect width="6" height="6"/></g>
<g transform="translate(275.625,653.625) scale(3.605)"><rect width="6" height="6"/></g>
<g transform="translate(296.625,653.625) scale(3.605)"><rect width="6" height="6"/></g>
<g transform="translate(380.625,653.625) scale(3.605)"><rect width="6" height="6"/></g>
<g transform="translate(401.625,653.625) scale(3.605)"><rect width="6" height="6"/></g>
<g transform="translate(422.625,653.625) scale(3.605)"><rect width="6" height="6"/></g>
<g transform="translate(464.625,653.625) scale(3.605)"><rect width="6" height="6"/></g>
<g transform="translate(506.625,653.625) scale(3.605)"><rect width="6" height="6"/></g>
<g transform="translate(527.625,653.625) scale(3.605)"><rect width="6" height="6"/></g>
<g transform="translate(548.625,653.625) scale(3.605)"><rect width="6" height="6"/></g>
<g transform="translate(611.625,653.625) scale(3.605)"><rect width="6" height="6"/></g>
<g transform="translate(674.625,653.625) scale(3.605)"><rect width="6" height="6"/></g>
<g transform="translate(695.625,653.625) scale(3.605)"><rect width="6" height="6"/></g>
<g transform="translate(779.625,653.625) scale(3.605)"><rect width="6" height="6"/></g>
<g transform="translate(800.625,653.625) scale(3.605)"><rect width="6" height="6"/></g>
<g transform="translate(884.625,653.625) scale(3.605)"><rect width="6" height="6"/></g>
<g transform="translate(926.625,653.625) scale(3.605)"><rect width="6" height="6"/></g>
<g transform="translate(947.625,653.625) scale(3.605)"><rect width="6" height="6"/></g>
<g transform="translate(128.625,674.625) scale(3.605)"><rect width="6" height="6"/></g>
<g transform="translate(191.625,674.625) scale(3.605)"><rect width="6" height="6"/></g>
<g transform="translate(254.625,674.625) scale(3.605)"><rect width="6" height="6"/></g>
<g transform="translate(275.625,674.625) scale(3.605)"><rect width="6" height="6"/></g>
<g transform="translate(296.625,674.625) scale(3.605)"><rect width="6" height="6"/></g>
<g transform="translate(317.625,674.625) scale(3.605)"><rect width="6" height="6"/></g>
<g transform="translate(359.625,674.625) scale(3.605)"><rect width="6" height="6"/></g>
<g transform="translate(380.625,674.625) scale(3.605)"><rect width="6" height="6"/></g>
<g transform="translate(401.625,674.625) scale(3.605)"><rect width="6" height="6"/></g>
<g transform="translate(422.625,674.625) scale(3.605)"><rect width="6" height="6"/></g>
<g transform="translate(464.625,674.625) scale(3.605)"><rect width="6" height="6"/></g>
<g transform="translate(485.625,674.625) scale(3.605)"><rect width="6" height="6"/></g>
<g transform="translate(548.625,674.625) scale(3.605)"><rect width="6" height="6"/></g>
<g transform="translate(632.625,674.625) scale(3.605)"><rect width="6" height="6"/></g>
<g transform="translate(716.625,674.625) scale(3.605)"><rect width="6" height="6"/></g>
<g transform="translate(842.625,674.625) scale(3.605)"><rect width="6" height="6"/></g>
<g transform="translate(863.625,674.625) scale(3.605)"><rect width="6" height="6"/></g>
<g transform="translate(884.625,674.625) scale(3.605)"><rect width="6" height="6"/></g>
<g transform="translate(107.625,695.625) scale(3.605)"><rect width="6" height="6"/></g>
<g transform="translate(212.625,695.625) scale(3.605)"><rect width="6" height="6"/></g>
<g transform="translate(233.625,695.625) scale(3.605)"><rect width="6" height="6"/></g>
<g transform="translate(275.625,695.625) scale(3.605)"><rect width="6" height="6"/></g>
<g transform="translate(296.625,695.625) scale(3.605)"><rect width="6" height="6"/></g>
<g transform="translate(359.625,695.625) scale(3.605)"><rect width="6" height="6"/></g>
<g transform="translate(380.625,695.625) scale(3.605)"><rect width="6" height="6"/></g>
<g transform="translate(422.625,695.625) scale(3.605)"><rect width="6" height="6"/></g>
<g transform="translate(443.625,695.625) scale(3.605)"><rect width="6" height="6"/></g>
<g transform="translate(464.625,695.625) scale(3.605)"><rect width="6" height="6"/></g>
<g transform="translate(506.625,695.625) scale(3.605)"><rect width="6" height="6"/></g>
<g transform="translate(527.625,695.625) scale(3.605)"><rect width="6" height="6"/></g>
<g transform="translate(548.625,695.625) scale(3.605)"><rect width="6" height="6"/></g>
<g transform="translate(569.625,695.625) scale(3.605)"><rect width="6" height="6"/></g>
<g transform="translate(590.625,695.625) scale(3.605)"><rect width="6" height="6"/></g>
<g transform="translate(632.625,695.625) scale(3.605)"><rect width="6" height="6"/></g>
<g transform="translate(674.625,695.625) scale(3.605)"><rect width="6" height="6"/></g>
<g transform="translate(695.625,695.625) scale(3.605)"><rect width="6" height="6"/></g>
<g transform="translate(737.625,695.625) scale(3.605)"><rect width="6" height="6"/></g>
<g transform="translate(758.625,695.625) scale(3.605)"><rect width="6" height="6"/></g>
<g transform="translate(800.625,695.625) scale(3.605)"><rect width="6" height="6"/></g>
<g transform="translate(842.625,695.625) scale(3.605)"><rect width="6" height="6"/></g>
<g transform="translate(863.625,695.625) scale(3.605)"><rect width="6" height="6"/></g>
<g transform="translate(905.625,695.625) scale(3.605)"><rect width="6" height="6"/></g>
<g transform="translate(947.625,695.625) scale(3.605)"><rect width="6" height="6"/></g>
<g transform="translate(107.625,716.625) scale(3.605)"><rect width="6" height="6"/></g>
<g transform="translate(128.625,716.625) scale(3.605)"><rect width="6" height="6"/></g>
<g transform="translate(149.625,716.625) scale(3.605)"><rect width="6" height="6"/></g>
<g transform="translate(170.625,716.625) scale(3.605)"><rect width="6" height="6"/></g>
<g transform="translate(191.625,716.625) scale(3.605)"><rect width="6" height="6"/></g>
<g transform="translate(212.625,716.625) scale(3.605)"><rect width="6" height="6"/></g>
<g transform="translate(254.625,716.625) scale(3.605)"><rect width="6" height="6"/></g>
<g transform="translate(317.625,716.625) scale(3.605)"><rect width="6" height="6"/></g>
<g transform="translate(338.625,716.625) scale(3.605)"><rect width="6" height="6"/></g>
<g transform="translate(422.625,716.625) scale(3.605)"><rect width="6" height="6"/></g>
<g transform="translate(443.625,716.625) scale(3.605)"><rect width="6" height="6"/></g>
<g transform="translate(464.625,716.625) scale(3.605)"><rect width="6" height="6"/></g>
<g transform="translate(485.625,716.625) scale(3.605)"><rect width="6" height="6"/></g>
<g transform="translate(506.625,716.625) scale(3.605)"><rect width="6" height="6"/></g>
<g transform="translate(527.625,716.625) scale(3.605)"><rect width="6" height="6"/></g>
<g transform="translate(611.625,716.625) scale(3.605)"><rect width="6" height="6"/></g>
<g transform="translate(674.625,716.625) scale(3.605)"><rect width="6" height="6"/></g>
<g transform="translate(716.625,716.625) scale(3.605)"><rect width="6" height="6"/></g>
<g transform="translate(779.625,716.625) scale(3.605)"><rect width="6" height="6"/></g>
<g transform="translate(905.625,716.625) scale(3.605)"><rect width="6" height="6"/></g>
<g transform="translate(107.625,737.625) scale(3.605)"><rect width="6" height="6"/></g>
<g transform="translate(170.625,737.625) scale(3.605)"><rect width="6" height="6"/></g>
<g transform="translate(233.625,737.625) scale(3.605)"><rect width="6" height="6"/></g>
<g transform="translate(275.625,737.625) scale(3.605)"><rect width="6" height="6"/></g>
<g transform="translate(359.625,737.625) scale(3.605)"><rect width="6" height="6"/></g>
<g transform="translate(422.625,737.625) scale(3.605)"><rect width="6" height="6"/></g>
<g transform="translate(464.625,737.625) scale(3.605)"><rect width="6" height="6"/></g>
<g transform="translate(485.625,737.625) scale(3.605)"><rect width="6" height="6"/></g>
<g transform="translate(506.625,737.625) scale(3.605)"><rect width="6" height="6"/></g>
<g transform="translate(527.625,737.625) scale(3.605)"><rect width="6" height="6"/></g>
<g transform="translate(548.625,737.625) scale(3.605)"><rect width="6" height="6"/></g>
<g transform="translate(569.625,737.625) scale(3.605)"><rect width="6" height="6"/></g>
<g transform="translate(590.625,737.625) scale(3.605)"><rect width="6" height="6"/></g>
<g transform="translate(653.625,737.625) scale(3.605)"><rect width="6" height="6"/></g>
<g transform="translate(674.625,737.625) scale(3.605)"><rect width="6" height="6"/></g>
<g transform="translate(695.625,737.625) scale(3.605)"><rect width="6" height="6"/></g>
<g transform="translate(716.625,737.625) scale(3.605)"><rect width="6" height="6"/></g>
<g transform="translate(737.625,737.625) scale(3.605)"><rect width="6" height="6"/></g>
<g transform="translate(758.625,737.625) scale(3.605)"><rect width="6" height="6"/></g>
<g transform="translate(800.625,737.625) scale(3.605)"><rect width="6" height="6"/></g>
<g transform="translate(842.625,737.625) scale(3.605)"><rect width="6" height="6"/></g>
<g transform="translate(863.625,737.625) scale(3.605)"><rect width="6" height="6"/></g>
<g transform="translate(107.625,758.625) scale(3.605)"><rect width="6" height="6"/></g>
<g transform="translate(149.625,758.625) scale(3.605)"><rect width="6" height="6"/></g>
<g transform="translate(170.625,758.625) scale(3.605)"><rect width="6" height="6"/></g>
<g transform="translate(212.625,758.625) scale(3.605)"><rect width="6" height="6"/></g>
<g transform="translate(380.625,758.625) scale(3.605)"><rect width="6" height="6"/></g>
<g transform="translate(401.625,758.625) scale(3.605)"><rect width="6" height="6"/></g>
<g transform="translate(422.625,758.625) scale(3.605)"><rect width="6" height="6"/></g>
<g transform="translate(485.625,758.625) scale(3.605)"><rect width="6" height="6"/></g>
<g transform="translate(506.625,758.625) scale(3.605)"><rect width="6" height="6"/></g>
<g transform="translate(569.625,758.625) scale(3.605)"><rect width="6" height="6"/></g>
<g transform="translate(590.625,758.625) scale(3.605)"><rect width="6" height="6"/></g>
<g transform="translate(632.625,758.625) scale(3.605)"><rect width="6" height="6"/></g>
<g transform="translate(653.625,758.625) scale(3.605)"><rect width="6" height="6"/></g>
<g transform="translate(674.625,758.625) scale(3.605)"><rect width="6" height="6"/></g>
<g transform="translate(737.625,758.625) scale(3.605)"><rect width="6" height="6"/></g>
<g transform="translate(758.625,758.625) scale(3.605)"><rect width="6" height="6"/></g>
<g transform="translate(779.625,758.625) scale(3.605)"><rect width="6" height="6"/></g>
<g transform="translate(800.625,758.625) scale(3.605)"><rect width="6" height="6"/></g>
<g transform="translate(821.625,758.625) scale(3.605)"><rect width="6" height="6"/></g>
<g transform="translate(926.625,758.625) scale(3.605)"><rect width="6" height="6"/></g>
<g transform="translate(107.625,779.625) scale(3.605)"><rect width="6" height="6"/></g>
<g transform="translate(149.625,779.625) scale(3.605)"><rect width="6" height="6"/></g>
<g transform="translate(212.625,779.625) scale(3.605)"><rect width="6" height="6"/></g>
<g transform="translate(233.625,779.625) scale(3.605)"><rect width="6" height="6"/></g>
<g transform="translate(275.625,779.625) scale(3.605)"><rect width="6" height="6"/></g>
<g transform="translate(296.625,779.625) scale(3.605)"><rect width="6" height="6"/></g>
<g transform="translate(317.625,779.625) scale(3.605)"><rect width="6" height="6"/></g>
<g transform="translate(401.625,779.625) scale(3.605)"><rect width="6" height="6"/></g>
<g transform="translate(464.625,779.625) scale(3.605)"><rect width="6" height="6"/></g>
<g transform="translate(485.625,779.625) scale(3.605)"><rect width="6" height="6"/></g>
<g transform="translate(527.625,779.625) scale(3.605)"><rect width="6" height="6"/></g>
<g transform="translate(611.625,779.625) scale(3.605)"><rect width="6" height="6"/></g>
<g transform="translate(674.625,779.625) scale(3.605)"><rect width="6" height="6"/></g>
<g transform="translate(695.625,779.625) scale(3.605)"><rect width="6" height="6"/></g>
<g transform="translate(716.625,779.625) scale(3.605)"><rect width="6" height="6"/></g>
<g transform="translate(737.625,779.625) scale(3.605)"><rect width="6" height="6"/></g>
<g transform="translate(758.625,779.625) scale(3.605)"><rect width="6" height="6"/></g>
<g transform="translate(779.625,779.625) scale(3.605)"><rect width="6" height="6"/></g>
<g transform="translate(800.625,779.625) scale(3.605)"><rect width="6" height="6"/></g>
<g transform="translate(821.625,779.625) scale(3.605)"><rect width="6" height="6"/></g>
<g transform="translate(842.625,779.625) scale(3.605)"><rect width="6" height="6"/></g>
<g transform="translate(863.625,779.625) scale(3.605)"><rect width="6" height="6"/></g>
<g transform="translate(884.625,779.625) scale(3.605)"><rect width="6" height="6"/></g>
<g transform="translate(947.625,779.625) scale(3.605)"><rect width="6" height="6"/></g>
<g transform="translate(275.625,800.625) scale(3.605)"><rect width="6" height="6"/></g>
<g transform="translate(359.625,800.625) scale(3.605)"><rect width="6" height="6"/></g>
<g transform="translate(380.625,800.625) scale(3.605)"><rect width="6" height="6"/></g>
<g transform="translate(443.625,800.625) scale(3.605)"><rect width="6" height="6"/></g>
<g transform="translate(569.625,800.625) scale(3.605)"><rect width="6" height="6"/></g>
<g transform="translate(590.625,800.625) scale(3.605)"><rect width="6" height="6"/></g>
<g transform="translate(716.625,800.625) scale(3.605)"><rect width="6" height="6"/></g>
<g transform="translate(758.625,800.625) scale(3.605)"><rect width="6" height="6"/></g>
<g transform="translate(779.625,800.625) scale(3.605)"><rect width="6" height="6"/></g>
<g transform="translate(863.625,800.625) scale(3.605)"><rect width="6" height="6"/></g>
<g transform="translate(926.625,800.625) scale(3.605)"><rect width="6" height="6"/></g>
<g transform="translate(947.625,800.625) scale(3.605)"><rect width="6" height="6"/></g>
<g transform="translate(317.625,821.625) scale(3.605)"><rect width="6" height="6"/></g>
<g transform="translate(401.625,821.625) scale(3.605)"><rect width="6" height="6"/></g>
<g transform="translate(464.625,821.625) scale(3.605)"><rect width="6" height="6"/></g>
<g transform="translate(506.625,821.625) scale(3.605)"><rect width="6" height="6"/></g>
<g transform="translate(527.625,821.625) scale(3.605)"><rect width="6" height="6"/></g>
<g transform="translate(569.625,821.625) scale(3.605)"><rect width="6" height="6"/></g>
<g transform="translate(590.625,821.625) scale(3.605)"><rect width="6" height="6"/></g>
<g transform="translate(611.625,821.625) scale(3.605)"><rect width="6" height="6"/></g>
<g transform="translate(653.625,821.625) scale(3.605)"><rect width="6" height="6"/></g>
<g transform="translate(674.625,821.625) scale(3.605)"><rect width="6" height="6"/></g>
<g transform="translate(695.625,821.625) scale(3.605)"><rect width="6" height="6"/></g>
<g transform="translate(716.625,821.625) scale(3.605)"><rect width="6" height="6"/></g>
<g transform="translate(779.625,821.625) scale(3.605)"><rect width="6" height="6"/></g>
<g transform="translate(821.625,821.625) scale(3.605)"><rect width="6" height="6"/></g>
<g transform="translate(863.625,821.625) scale(3.605)"><rect width="6" height="6"/></g>
<g transform="translate(905.625,821.625) scale(3.605)"><rect width="6" height="6"/></g>
<g transform="translate(926.625,821.625) scale(3.605)"><rect width="6" height="6"/></g>
<g transform="translate(338.625,842.625) scale(3.605)"><rect width="6" height="6"/></g>
<g transform="translate(359.625,842.625) scale(3.605)"><rect width="6" height="6"/></g>
<g transform="translate(380.625,842.625) scale(3.605)"><rect width="6" height="6"/></g>
<g transform="translate(401.625,842.625) scale(3.605)"><rect width="6" height="6"/></g>
<g transform="translate(443.625,842.625) scale(3.605)"><rect width="6" height="6"/></g>
<g transform="translate(464.625,842.625) scale(3.605)"><rect width="6" height="6"/></g>
<g transform="translate(485.625,842.625) scale(3.605)"><rect width="6" height="6"/></g>
<g transform="translate(569.625,842.625) scale(3.605)"><rect width="6" height="6"/></g>
<g transform="translate(632.625,842.625) scale(3.605)"><rect width="6" height="6"/></g>
<g transform="translate(653.625,842.625) scale(3.605)"><rect width="6" height="6"/></g>
<g transform="translate(674.625,842.625) scale(3.605)"><rect width="6" height="6"/></g>
<g transform="translate(716.625,842.625) scale(3.605)"><rect width="6" height="6"/></g>
<g transform="translate(737.625,842.625) scale(3.605)"><rect width="6" height="6"/></g>
<g transform="translate(779.625,842.625) scale(3.605)"><rect width="6" height="6"/></g>
<g transform="translate(863.625,842.625) scale(3.605)"><rect width="6" height="6"/></g>
<g transform="translate(275.625,863.625) scale(3.605)"><rect width="6" height="6"/></g>
<g transform="translate(317.625,863.625) scale(3.605)"><rect width="6" height="6"/></g>
<g transform="translate(338.625,863.625) scale(3.605)"><rect width="6" height="6"/></g>
<g transform="translate(359.625,863.625) scale(3.605)"><rect width="6" height="6"/></g>
<g transform="translate(401.625,863.625) scale(3.605)"><rect width="6" height="6"/></g>
<g transform="translate(422.625,863.625) scale(3.605)"><rect width="6" height="6"/></g>
<g transform="translate(464.625,863.625) scale(3.605)"><rect width="6" height="6"/></g>
<g transform="translate(485.625,863.625) scale(3.605)"><rect width="6" height="6"/></g>
<g transform="translate(569.625,863.625) scale(3.605)"><rect width="6" height="6"/></g>
<g transform="translate(632.625,863.625) scale(3.605)"><rect width="6" height="6"/></g>
<g transform="translate(653.625,863.625) scale(3.605)"><rect width="6" height="6"/></g>
<g transform="translate(695.625,863.625) scale(3.605)"><rect width="6" height="6"/></g>
<g transform="translate(758.625,863.625) scale(3.605)"><rect width="6" height="6"/></g>
<g transform="translate(779.625,863.625) scale(3.605)"><rect width="6" height="6"/></g>
<g transform="translate(800.625,863.625) scale(3.605)"><rect width="6" height="6"/></g>
<g transform="translate(821.625,863.625) scale(3.605)"><rect width="6" height="6"/></g>
<g transform="translate(842.625,863.625) scale(3.605)"><rect width="6" height="6"/></g>
<g transform="translate(863.625,863.625) scale(3.605)"><rect width="6" height="6"/></g>
<g transform="translate(926.625,863.625) scale(3.605)"><rect width="6" height="6"/></g>
<g transform="translate(275.625,884.625) scale(3.605)"><rect width="6" height="6"/></g>
<g transform="translate(296.625,884.625) scale(3.605)"><rect width="6" height="6"/></g>
<g transform="translate(317.625,884.625) scale(3.605)"><rect width="6" height="6"/></g>
<g transform="translate(359.625,884.625) scale(3.605)"><rect width="6" height="6"/></g>
<g transform="translate(380.625,884.625) scale(3.605)"><rect width="6" height="6"/></g>
<g transform="translate(401.625,884.625) scale(3.605)"><rect width="6" height="6"/></g>
<g transform="translate(485.625,884.625) scale(3.605)"><rect width="6" height="6"/></g>
<g transform="translate(548.625,884.625) scale(3.605)"><rect width="6" height="6"/></g>
<g transform="translate(569.625,884.625) scale(3.605)"><rect width="6" height="6"/></g>
<g transform="translate(653.625,884.625) scale(3.605)"><rect width="6" height="6"/></g>
<g transform="translate(674.625,884.625) scale(3.605)"><rect width="6" height="6"/></g>
<g transform="translate(737.625,884.625) scale(3.605)"><rect width="6" height="6"/></g>
<g transform="translate(779.625,884.625) scale(3.605)"><rect width="6" height="6"/></g>
<g transform="translate(800.625,884.625) scale(3.605)"><rect width="6" height="6"/></g>
<g transform="translate(842.625,884.625) scale(3.605)"><rect width="6" height="6"/></g>
<g transform="translate(884.625,884.625) scale(3.605)"><rect width="6" height="6"/></g>
<g transform="translate(905.625,884.625) scale(3.605)"><rect width="6" height="6"/></g>
<g transform="translate(926.625,884.625) scale(3.605)"><rect width="6" height="6"/></g>
<g transform="translate(275.625,905.625) scale(3.605)"><rect width="6" height="6"/></g>
<g transform="translate(338.625,905.625) scale(3.605)"><rect width="6" height="6"/></g>
<g transform="translate(380.625,905.625) scale(3.605)"><rect width="6" height="6"/></g>
<g transform="translate(401.625,905.625) scale(3.605)"><rect width="6" height="6"/></g>
<g transform="translate(422.625,905.625) scale(3.605)"><rect width="6" height="6"/></g>
<g transform="translate(590.625,905.625) scale(3.605)"><rect width="6" height="6"/></g>
<g transform="translate(632.625,905.625) scale(3.605)"><rect width="6" height="6"/></g>
<g transform="translate(653.625,905.625) scale(3.605)"><rect width="6" height="6"/></g>
<g transform="translate(674.625,905.625) scale(3.605)"><rect width="6" height="6"/></g>
<g transform="translate(716.625,905.625) scale(3.605)"><rect width="6" height="6"/></g>
<g transform="translate(758.625,905.625) scale(3.605)"><rect width="6" height="6"/></g>
<g transform="translate(800.625,905.625) scale(3.605)"><rect width="6" height="6"/></g>
<g transform="translate(842.625,905.625) scale(3.605)"><rect width="6" height="6"/></g>
<g transform="translate(905.625,905.625) scale(3.605)"><rect width="6" height="6"/></g>
<g transform="translate(926.625,905.625) scale(3.605)"><rect width="6" height="6"/></g>
<g transform="translate(338.625,926.625) scale(3.605)"><rect width="6" height="6"/></g>
<g transform="translate(380.625,926.625) scale(3.605)"><rect width="6" height="6"/></g>
<g transform="translate(443.625,926.625) scale(3.605)"><rect width="6" height="6"/></g>
<g transform="translate(485.625,926.625) scale(3.605)"><rect width="6" height="6"/></g>
<g transform="translate(527.625,926.625) scale(3.605)"><rect width="6" height="6"/></g>
<g transform="translate(548.625,926.625) scale(3.605)"><rect width="6" height="6"/></g>
<g transform="translate(653.625,926.625) scale(3.605)"><rect width="6" height="6"/></g>
<g transform="translate(674.625,926.625) scale(3.605)"><rect width="6" height="6"/></g>
<g transform="translate(716.625,926.625) scale(3.605)"><rect width="6" height="6"/></g>
<g transform="translate(779.625,926.625) scale(3.605)"><rect width="6" height="6"/></g>
<g transform="translate(821.625,926.625) scale(3.605)"><rect width="6" height="6"/></g>
<g transform="translate(842.625,926.625) scale(3.605)"><rect width="6" height="6"/></g>
<g transform="translate(884.625,926.625) scale(3.605)"><rect width="6" height="6"/></g>
<g transform="translate(905.625,926.625) scale(3.605)"><rect width="6" height="6"/></g>
<g transform="translate(926.625,926.625) scale(3.605)"><rect width="6" height="6"/></g>
<g transform="translate(947.625,926.625) scale(3.605)"><rect width="6" height="6"/></g>
<g transform="translate(317.625,947.625) scale(3.605)"><rect width="6" height="6"/></g>
<g transform="translate(443.625,947.625) scale(3.605)"><rect width="6" height="6"/></g>
<g transform="translate(506.625,947.625) scale(3.605)"><rect width="6" height="6"/></g>
<g transform="translate(548.625,947.625) scale(3.605)"><rect width="6" height="6"/></g>
<g transform="translate(611.625,947.625) scale(3.605)"><rect width="6" height="6"/></g>
<g transform="translate(632.625,947.625) scale(3.605)"><rect width="6" height="6"/></g>
<g transform="translate(653.625,947.625) scale(3.605)"><rect width="6" height="6"/></g>
<g transform="translate(674.625,947.625) scale(3.605)"><rect width="6" height="6"/></g>
<g transform="translate(695.625,947.625) scale(3.605)"><rect width="6" height="6"/></g>
<g transform="translate(716.625,947.625) scale(3.605)"><rect width="6" height="6"/></g>
<g transform="translate(737.625,947.625) scale(3.605)"><rect width="6" height="6"/></g>
<g transform="translate(926.625,947.625) scale(3.605)"><rect width="6" height="6"/></g>
</g></g></mask></defs>
<rect width="996.428125" height="996.428125" fill="#ffffff" x="44.84375" y="44.84375" />
<g fill="#000000" transform="scale(44.84375)"><path d="M22.7,0H1.3C0.6,0,0,0.6,0,1.3v25.3C0,27.4,0.6,28,1.3,28h21.3c0.7,0,1.3-0.6,1.3-1.3V1.3C24,0.6,23.4,0,22.7,0 z M23,22c0,0.6-0.5,1-1,1H2c-0.6,0-1-0.5-1-1V2c0-0.6,0.5-1,1-1h20c0.6,0,1,0.5,1,1V22z"/></g>
<rect x="0" y="0" width="1076.25" height="1255.625" mask="url(#qrmask)" fill="#000000" />
<g><g transform="translate(107.625,107.625)"  fill="#000000"><g transform="scale(10.5)"><path d="M0,0v14h14V0H0z M12,12H2V2h10V12z"/></g></g>
<g transform="translate(149.625,149.625)"  fill="#000000"><g transform="scale(10.5)"><rect width="6" height="6"/></g></g>
<g transform="translate(821.625,107.625)"  fill="#000000"><g transform="scale(10.5)"><path d="M0,0v14h14V0H0z M12,12H2V2h10V12z"/></g></g>
<g transform="translate(863.625,149.625)"  fill="#000000"><g transform="scale(10.5)"><rect width="6" height="6"/></g></g>
<g transform="translate(107.625,821.625)"  fill="#000000"><g transform="scale(10.5)"><path d="M0,0v14h14V0H0z M12,12H2V2h10V12z"/></g></g>
<g transform="translate(149.625,863.625)"  fill="#000000"><g transform="scale(10.5)"><rect width="6" height="6"/></g></g></g>
<text fill="#FFFFFF" font-family="Arial, Helvetica, sans-serif" font-size="47.448958333333px" text-anchor="middle" x="525.625" y="130.35897435897" transform="translate(0,1031.40625)">Microfab_003:A3GX2vBM</text></svg>